The Egyptian 1954 BDRip x264 AC3 PsiX

 
http://s22.postimg.org/pw91ykjo1/image.png

 
http://s22.postimg.org/5q5jzoo0h/image.png

 
http://s22.postimg.org/bsd6q6cgh/image.png





The.Egyptian.1954.BDRip.x264.AC3-PsiX.mkv


Format : Matroska
Format version : Version 2
File size : 1.77 GiB
Duration : 2h 19mn
Overall bit rate : 1 814 Kbps
Encoded date : UTC 2013-06-19 19:37:28
Writing application : mkvmerge v6.2.0 ('Promised Land') built on Apr 28 2013 12:22:01
Writing library : libebml v1.3.0 + libmatroska v1.4.0

Video
ID : 1
Format : AVC
Format/Info : Advanced Video Codec
Format profile : High@L4.1
Format settings, CABAC : Yes
Format settings, ReFrames : 7 frames
Codec ID : V_MPEG4/ISO/AVC
Duration : 2h 19mn
Bit rate : 1 364 Kbps
Width : 720 pixels
Height : 282 pixels
Display aspect ratio : 2.553
Frame rate mode : Constant
Frame rate : 23.976 fps
Color space : YUV
Chroma subsampling : 4:2:0
Bit depth : 8 bits
Scan type : Progressive
Bits/(Pixel*Frame) : 0.280
Stream size : 1.30 GiB (73%)
Writing library : x264 core 133 r2334 a3ac64b


Audio
ID : 2
Format : AC-3
Format/Info : Audio Coding 3
Mode extension : CM (complete main)
Format settings, Endianness : Big
Codec ID : A_AC3
Duration : 2h 19mn
Bit rate mode : Constant
Bit rate : 448 Kbps
Channel(s) : 6 channels
Channel positions : Front: L C R, Side: L R, LFE
Sampling rate : 48.0 KHz
Bit depth : 16 bits
Compression mode : Lossy
Stream size : 448 MiB (25%)
Language : English
Default : Yes
Forced : No




Encoded............: PsiX
Source.............: Blu-ray Remux (20 GB)
Subs..........No
